<?xml version="1.0" encoding="utf-8"?>
<!-- Generator: Adobe Illustrator 23.1.0, SVG Export Plug-In . SVG Version: 6.00 Build 0)  -->
<svg version="1.1" id="Layer_1" xmlns="http://www.w3.org/2000/svg" xmlns:xlink="http://www.w3.org/1999/xlink" x="0px" y="0px"
	 viewBox="0 0 104.8 104.8" style="enable-background:new 0 0 104.8 104.8;" xml:space="preserve">
<style type="text/css">
	.st0{fill:#262626;}
</style>
<g>
	<path class="st0" d="M28.8,68.8c-1.6-1-3.4,0.3-3.9-1.3c-0.6-1.8,1.4-1.6,2.3-2.4c2.2-1.9,3-4.6,3.6-7.2c1.3-5.6,1.4-11.3,1.4-17
		c0-1-0.4-2.6,1.1-2.8c1.5-0.3,1.6,1.3,1.9,2.3C36.6,45,38.9,49,42.9,52c1.3,1,2.6,2.3,4.9,1.9c-0.4-2.4-1.4-4.6-1.3-6.9
		c0.1-1.1-0.4-2.5,1-2.9c1.5-0.5,1.8,1,2.3,1.9c2.5,4.2,5.7,7.8,10.8,9.9c-0.2-3.2-0.6-6.2,0.6-8.9c0.5-1.1,0.6-2.7,2.1-2.8
		c1.7-0.1,1.5,1.7,2,2.7c1.2,2.8,2.2,5.8,3.6,8.6c2.1,4,4.8,7.6,9.8,8.4c0.7,0.1,1.5,0.4,1.6,1.3c0.1,1.2-1,1.4-1.8,1.3
		c-1.8-0.2-2.1,1-2.2,2.3c-0.1,2,1.6,2.6,3,3.3c1.1,0.6,2.2,0.7,3-0.5c0.3-0.5,0.7-1.1,0.9-1.6c5-11.8,7.4-23.9,5.4-36.7
		c-1.5-9.7-6.5-16.6-16.2-20c-10.1-3.6-20-4-29.9,0.4c-1,0.5-2.5,1.7-3.3,0.1c-0.8-1.6,1-2,2-2.5C55.4,5.2,69,6.7,81.5,15.1
		c6.6,4.4,9.2,11.6,10.1,19.3C93,47,90.8,59.1,85.8,70.7c-2.2,5.2-3.9,5.8-8.9,3.1c-1.7-0.9-2.3-0.5-3.2,0.9
		c-2.7,4.7-6.8,7.6-12,8.9c-2.6,0.7-2.4,1.7-1.2,3.6c1.9,3,2.9,6.3,3.3,9.8c0.1,1.1,0.4,2.6-1,2.8c-1.5,0.3-1.6-1.2-1.7-2.3
		c-0.3-2.7-1.2-5.3-2.3-7.8c-0.8-1.6-1.4-2.5-3.2-0.7c-2,2-4.3,1.7-6.3-0.2c-1.4-1.3-2.1-0.8-2.7,0.6c-1.4,2.7-2.1,5.6-2.5,8.5
		c-0.1,0.9-0.3,1.9-1.4,1.9c-1.4,0-1.4-1.2-1.3-2.2c0.3-3.5,1.2-6.9,3.1-9.9c1.4-2.2,1.5-3.2-1.5-4c-5.5-1.3-9.7-4.5-12.2-9.6
		c-1-2-1.9-2.1-3.7-0.9c-4.4,3.2-5.7,2.7-6.9-2.7c-3.4-14.5-3.7-28.8,3.5-42.4c2.3-4.3,5.2-8.1,8.9-11.4c0.7-0.6,1.6-1.7,2.6-0.8
		c1.3,1.2,0,2-0.8,2.7C19.1,33.3,18.7,51.1,22.7,69.9c0.4,1.9,1,2.7,2.9,1.1C26.4,70.3,27.5,69.7,28.8,68.8z M63.7,51
		c-0.7,2.4,0,3.6,0.4,4.9c0.3,1.1,2,2,0.8,3.3c-1.1,1.2-2.7,0.3-3.9-0.1c-1.9-0.7-3.6-1.7-5.4-2.6c-1.4-0.7-2.3-2.4-4.1-2.8
		c0,1.6,1.9,2.4,1,3.7c-1,1.4-2.6,0.5-3.8,0.2c-2.6-0.6-4.9-1.7-7.1-3.3c-2.4-1.7-4.1-4.2-6.8-7c-0.2,6.7-1.3,12.5-3.5,18
		c-0.2,0.5,0,1.2,0.1,1.8c1,6.9,4.7,11.7,11.4,13.8c6.5,2.1,13.1,2,19.5-0.3c6.1-2.1,9.9-6.4,11.4-12.7c0.2-1.1,0.7-2.4-0.3-3.2
		C68.8,61.5,66.3,56.6,63.7,51z"/>
	<path class="st0" d="M66.6,62c1.6,0.1,2.5,1,2.5,2.6c0,1.7-1,2.8-2.8,2.7c-1.7-0.1-2.6-1.2-2.5-3C64,62.7,65,62.1,66.6,62z"/>
	<path class="st0" d="M39.9,64.5c-0.1,1.5-0.7,2.7-2.4,2.8c-1.8,0.2-2.8-0.9-2.9-2.6c-0.1-1.6,0.9-2.5,2.5-2.6
		C38.8,62,39.7,62.9,39.9,64.5z"/>
	<path class="st0" d="M48.7,74.5c3.4,3.4,4.2,3.4,7.4-0.2c0,2.6-1,3.9-3.2,4C50.4,78.4,48.9,77.1,48.7,74.5z"/>
</g>
</svg>
